<svg width="80" height="80" viewBox="0 0 80 80" fill="none" xmlns="http://www.w3.org/2000/svg">
<g clip-path="url(#clip0_24_52)">
<path d="M25.5159 41.3579C23.1067 39.9664 20.3006 39.5962 17.6144 40.3158C14.9289 41.0353 12.6841 42.7578 11.2938 45.1658C9.90172 47.5751 9.53141 50.3823 10.2511 53.0701C10.9706 55.7572 12.6933 58.0028 15.1017 59.3934C16.7386 60.3375 18.5267 60.7861 20.2927 60.7859C23.8956 60.7858 27.4036 58.9178 29.3283 55.5809C30.7186 53.1728 31.0881 50.3672 30.3684 47.6808C29.6489 44.9933 27.9255 42.7478 25.5159 41.3579ZM27.4372 54.4893C25.9159 57.1268 23.1442 58.6029 20.2964 58.6026C18.9009 58.6025 17.4867 58.2479 16.1934 57.502C14.2905 56.4033 12.9294 54.6287 12.3606 52.5053C11.7917 50.3811 12.0844 48.1625 13.1848 46.2581C14.2836 44.3551 16.0575 42.9939 18.1795 42.4253C18.8878 42.2356 19.6066 42.1417 20.3206 42.1417C21.7472 42.1417 23.1552 42.5162 24.4241 43.2493C24.4242 43.2493 24.4245 43.2495 24.4247 43.2497C26.3286 44.3478 27.6905 46.1222 28.2594 48.2458C28.828 50.3687 28.5361 52.5861 27.4372 54.4893ZM23.9075 46.3283L24.382 45.5065C24.6836 44.9843 24.5047 44.3165 23.9823 44.015C23.4603 43.7136 22.7923 43.8923 22.4908 44.4147L22.0159 45.2372C20.3617 44.7204 18.6945 45.1893 17.9381 46.5003C17.5586 47.1561 17.4659 47.9522 17.6773 48.7415C17.8684 49.4556 18.2906 50.1248 18.8791 50.67L17.8625 52.4308C17.5863 52.0258 17.5084 51.607 17.6595 51.344C17.9598 50.8212 17.7795 50.1539 17.2566 49.8534C16.7341 49.5533 16.0663 49.7334 15.7659 50.2564C15.0106 51.5712 15.4377 53.252 16.7116 54.4242L16.2402 55.2406C15.9386 55.7628 16.1175 56.4306 16.6398 56.7322C16.8117 56.8314 16.9995 56.8787 17.1848 56.8787C17.5622 56.8787 17.9292 56.6829 18.1314 56.3326L18.6047 55.5129C19.035 55.6459 19.4727 55.7162 19.9006 55.7162C20.2352 55.7162 20.5636 55.6748 20.8773 55.5904C21.6666 55.3784 22.3088 54.9003 22.6847 54.2459C23.143 53.4515 23.175 52.4579 22.7727 51.52C22.5448 50.9886 22.1902 50.4978 21.7408 50.0812L22.7591 48.3176C22.8281 48.4184 22.8866 48.5223 22.9317 48.6276C23.0072 48.8036 23.1111 49.1381 22.9591 49.4015C22.6577 49.9239 22.8369 50.5917 23.3591 50.8929C23.8816 51.1945 24.5492 51.0153 24.8505 50.4929C25.3088 49.6986 25.3408 48.705 24.9386 47.767C24.7109 47.2354 24.3566 46.7448 23.9075 46.3283ZM19.7869 48.1765C19.7442 48.0172 19.7167 47.7867 19.8289 47.5926C19.9794 47.3318 20.3789 47.1912 20.8663 47.2281L20.0272 48.6814C19.9155 48.5183 19.8327 48.3478 19.7869 48.1765ZM20.7658 52.3803C20.8413 52.5562 20.9452 52.8909 20.7922 53.1561C20.6823 53.3475 20.4697 53.4384 20.3106 53.4812C20.1389 53.5273 19.9494 53.5411 19.7517 53.5259L20.5927 52.0695C20.6619 52.1706 20.7205 52.2747 20.7658 52.3803ZM72.0666 47.4448H65.9752H47.652H41.565C40.6705 47.4448 39.9427 46.717 39.9427 45.8225V38.5198C39.9427 37.6276 40.6705 36.9018 41.565 36.9018H52.1875C52.7905 36.9018 53.2794 36.4129 53.2794 35.81C53.2794 35.207 52.7905 34.7181 52.1875 34.7181H46.1658L44.9062 29.5268C47.0938 28.4259 48.9956 26.6993 50.3086 24.4247C52.045 21.4162 52.5058 17.9117 51.6061 14.5567C50.7064 11.2017 48.5541 8.39778 45.5456 6.66138C42.537 4.92482 39.0327 4.46325 35.678 5.36153C32.3227 6.26013 29.5186 8.41153 27.7822 11.4198C27.4808 11.9422 27.6597 12.6098 28.182 12.9112C28.7042 13.2126 29.3722 13.0337 29.6734 12.5114C31.1181 10.0084 33.4511 8.21841 36.2427 7.47091C39.0341 6.72357 41.9503 7.10763 44.4539 8.55263C46.9573 9.99747 48.7483 12.3308 49.4969 15.1223C50.2455 17.914 49.862 20.83 48.4173 23.3331C47.4166 25.067 46.0039 26.4172 44.3748 27.3362L41.4592 15.3198C41.3887 15.0297 41.2027 14.7809 40.9441 14.6317C40.6855 14.4823 40.377 14.4454 40.0905 14.5297L20.5384 20.272C20.2692 20.3511 20.0408 20.5308 19.9006 20.7737L0.224536 54.8559C-0.0770261 55.3781 0.10188 56.0459 0.624224 56.3473L24.9814 70.409C25.1533 70.5083 25.3411 70.5556 25.5263 70.5556C25.9036 70.5556 26.2706 70.3597 26.4728 70.0093L38.8803 48.5178C39.5691 49.2039 40.5183 49.6286 41.5648 49.6286H44.2127C43.9806 50.1198 43.8502 50.6681 43.8502 51.2465V58.5536C43.8502 59.132 43.9806 59.6803 44.2127 60.1715H41.5647C39.4661 60.1715 37.7586 61.8789 37.7586 63.9775V71.2801C37.7586 73.3789 39.4659 75.0862 41.5647 75.0862H65.9748C68.0734 75.0862 69.7809 73.3789 69.7809 71.2801V63.9775C69.7809 63.3975 69.65 62.8476 69.417 62.3551H72.0664C74.165 62.3551 75.8725 60.6497 75.8725 58.5534V51.2464C75.8727 49.1503 74.1653 47.4448 72.0666 47.4448ZM25.1277 67.972L2.66172 55.0022L21.573 22.244L39.6069 16.9476L42.3433 28.2253C40.9541 28.6695 39.4781 28.8317 38.0086 28.6928C38.1764 26.8329 37.2803 24.9534 35.5602 23.9592C35.5597 23.9589 35.5591 23.9586 35.5584 23.9583C33.2006 22.6012 30.1725 23.4128 28.808 25.7684C28.1464 26.9131 27.9708 28.2462 28.3134 29.5225C28.6558 30.7978 29.4745 31.8629 30.6172 32.5206C31.3931 32.969 32.2414 33.182 33.0794 33.182C34.7508 33.182 36.3784 32.332 37.3059 30.8126C37.877 30.8889 38.45 30.9272 39.0213 30.9272C40.3255 30.927 41.6194 30.7297 42.8586 30.3495L43.9186 34.7181H41.565C39.4664 34.7181 37.7589 36.4236 37.7589 38.5198V45.8225C37.7589 45.9079 37.7628 45.9925 37.7683 46.0765L25.1277 67.972ZM33.6322 27.2965C33.11 26.9953 32.442 27.174 32.1408 27.6964C31.8394 28.2187 32.0183 28.8864 32.5406 29.1878C33.3217 29.6386 34.1306 29.9983 34.9548 30.2714C34.09 31.0645 32.7767 31.2462 31.7081 30.6287C31.07 30.2615 30.6134 29.6675 30.4223 28.9562C30.2313 28.244 30.3292 27.5 30.698 26.862C31.2098 25.9784 32.1411 25.4836 33.0964 25.4836C33.5631 25.4836 34.0358 25.6017 34.4681 25.8503C35.3564 26.3642 35.8495 27.3011 35.8445 28.2604C35.0883 28.0265 34.3461 27.7086 33.6322 27.2965ZM67.5975 63.9776V71.2803C67.5975 72.175 66.8697 72.9028 65.9752 72.9028H41.565C40.6705 72.9028 39.9427 72.175 39.9427 71.2803V63.9776C39.9427 63.0831 40.6705 62.3553 41.565 62.3553H47.652H65.9752C66.8697 62.3553 67.5975 63.0831 67.5975 63.9776ZM73.6889 58.5536C73.6889 59.4458 72.9611 60.1715 72.0666 60.1715H65.9752H47.652C46.7598 60.1715 46.0341 59.4458 46.0341 58.5536V51.2465C46.0341 50.3543 46.7598 49.6286 47.652 49.6286H65.9752H72.0666C72.9611 49.6286 73.6889 50.3543 73.6889 51.2465V58.5536ZM67.1555 18.7336C60.1161 18.7336 54.3891 24.4606 54.3891 31.5C54.3891 38.5393 60.1161 44.2664 67.1555 44.2664C74.1948 44.2664 79.9219 38.5395 79.9219 31.5C79.9219 24.4604 74.1948 18.7336 67.1555 18.7336ZM67.1555 42.0828C61.3202 42.0828 56.5727 37.3354 56.5727 31.5C56.5727 25.6645 61.32 20.9172 67.1555 20.9172C72.9909 20.9172 77.7383 25.6645 77.7383 31.5C77.7383 37.3354 72.9908 42.0828 67.1555 42.0828ZM69.6972 28.7858C69.6972 29.3887 70.1861 29.8776 70.7891 29.8776C71.392 29.8776 71.8809 29.3887 71.8809 28.7858C71.8809 26.9898 70.3281 25.4814 68.2472 25.0834V23.6712C68.2472 23.0683 67.7583 22.5793 67.1553 22.5793C66.5523 22.5793 66.0634 23.0683 66.0634 23.6712V25.0834C63.9827 25.4815 62.4297 26.9898 62.4297 28.7858C62.4297 30.5817 63.9825 32.0901 66.0634 32.4881V35.6653C65.2222 35.3942 64.6134 34.8322 64.6134 34.2142C64.6134 33.6112 64.1245 33.1223 63.5216 33.1223C62.9186 33.1223 62.4297 33.6112 62.4297 34.2142C62.4297 36.0101 63.9825 37.5184 66.0634 37.9165V39.3287C66.0634 39.9317 66.5523 40.4206 67.1553 40.4206C67.7583 40.4206 68.2472 39.9317 68.2472 39.3287V37.9165C70.328 37.5184 71.8809 36.0101 71.8809 34.2142C71.8809 32.4183 70.3281 30.9098 68.2472 30.5118V27.3347C69.0886 27.6058 69.6972 28.1678 69.6972 28.7858ZM64.6136 28.7858C64.6136 28.1678 65.2223 27.6056 66.0636 27.3345V30.2368C65.2223 29.9659 64.6136 29.4039 64.6136 28.7858ZM69.6972 34.2142C69.6972 34.8322 69.0884 35.3942 68.2472 35.6653V32.7629C69.0886 33.0342 69.6972 33.5962 69.6972 34.2142Z" fill="#E01E26"/>
</g>
<defs>
<clipPath id="clip0_24_52">
<rect width="80" height="80" fill="white"/>
</clipPath>
</defs>
</svg>
