<svg width="40" height="40" viewBox="0 0 40 40" fill="none" xmlns="http://www.w3.org/2000/svg">
<g clip-path="url(#clip0_24_19)">
<path d="M28.0392 24.0375L33.2892 21.1267C33.8817 20.7975 34.5033 19.9583 33.2892 19.2875L28.0358 16.385L24.275 20.2225L28.0392 24.0375Z" fill="#FFE300"/>
<path d="M24.275 20.2233L12.2467 32.4983C12.5183 32.5342 12.845 32.4608 13.2208 32.2525L28.0392 24.0375L24.275 20.2233Z" fill="#FF4E54"/>
<path d="M24.275 20.2225L28.035 16.385L13.2208 8.19834C12.8992 8.02 12.5483 7.95834 12.2375 8.02834L24.275 20.2225Z" fill="#00F085"/>
<path d="M24.275 20.2233L12.2383 8.02834C11.7408 8.14084 11.3333 8.57667 11.3333 9.45334V31.0367C11.3333 31.8617 11.6542 32.4408 12.2467 32.4992L24.275 20.2233Z" fill="#00E0FF"/>
</g>
<defs>
<clipPath id="clip0_24_19">
<rect width="40" height="40" fill="white"/>
</clipPath>
</defs>
</svg>
