<svg width="68" height="68" viewBox="0 0 68 68" fill="none" xmlns="http://www.w3.org/2000/svg">
<circle cx="34" cy="34" r="34" fill="#E01E26"/>
<path d="M48.025 16.1501H19.975C18.9606 16.1501 17.9877 16.5531 17.2703 17.2705C16.553 17.9878 16.15 18.9607 16.15 19.9751V48.0251C16.15 49.0396 16.553 50.0125 17.2703 50.7298C17.9877 51.4472 18.9606 51.8501 19.975 51.8501H48.025C49.0395 51.8501 50.0124 51.4472 50.7297 50.7298C51.447 50.0125 51.85 49.0396 51.85 48.0251V19.9751C51.85 18.9607 51.447 17.9878 50.7297 17.2705C50.0124 16.5531 49.0395 16.1501 48.025 16.1501ZM45.475 19.9751C45.7272 19.9751 45.9737 20.0499 46.1834 20.19C46.393 20.3301 46.5565 20.5292 46.653 20.7622C46.7495 20.9952 46.7747 21.2516 46.7255 21.4989C46.6763 21.7462 46.5549 21.9734 46.3766 22.1517C46.1983 22.33 45.9711 22.4515 45.7237 22.5006C45.4764 22.5498 45.2201 22.5246 44.9871 22.4281C44.7541 22.3316 44.555 22.1682 44.4149 21.9585C44.2748 21.7488 44.2 21.5023 44.2 21.2501C44.2 20.912 44.3343 20.5877 44.5734 20.3486C44.8126 20.1095 45.1369 19.9751 45.475 19.9751ZM40.375 19.9751C40.6272 19.9751 40.8737 20.0499 41.0834 20.19C41.293 20.3301 41.4565 20.5292 41.553 20.7622C41.6495 20.9952 41.6747 21.2516 41.6255 21.4989C41.5763 21.7462 41.4549 21.9734 41.2766 22.1517C41.0983 22.33 40.8711 22.4515 40.6238 22.5006C40.3764 22.5498 40.1201 22.5246 39.8871 22.4281C39.6541 22.3316 39.455 22.1682 39.3149 21.9585C39.1748 21.7488 39.1 21.5023 39.1 21.2501C39.1 20.912 39.2343 20.5877 39.4734 20.3486C39.7126 20.1095 40.0369 19.9751 40.375 19.9751ZM35.275 19.9751C35.5272 19.9751 35.7737 20.0499 35.9834 20.19C36.193 20.3301 36.3565 20.5292 36.453 20.7622C36.5495 20.9952 36.5747 21.2516 36.5255 21.4989C36.4763 21.7462 36.3549 21.9734 36.1766 22.1517C35.9983 22.33 35.7711 22.4515 35.5238 22.5006C35.2764 22.5498 35.0201 22.5246 34.7871 22.4281C34.5541 22.3316 34.355 22.1682 34.2149 21.9585C34.0748 21.7488 34 21.5023 34 21.2501C34 20.912 34.1343 20.5877 34.3734 20.3486C34.6126 20.1095 34.9369 19.9751 35.275 19.9751ZM49.3 48.0251C49.3 48.3633 49.1657 48.6876 48.9266 48.9267C48.6875 49.1658 48.3632 49.3001 48.025 49.3001H19.975C19.6369 49.3001 19.3126 49.1658 19.0734 48.9267C18.8343 48.6876 18.7 48.3633 18.7 48.0251V26.3501H49.3V48.0251ZM46.75 32.0749V43.5499C46.7517 43.9685 46.6709 44.3833 46.5123 44.7707C46.3536 45.158 46.1202 45.5104 45.8254 45.8075C45.5306 46.1047 45.1802 46.3409 44.7941 46.5026C44.408 46.6644 43.9938 46.7485 43.5753 46.7501H41.0253C40.6067 46.7518 40.1918 46.671 39.8045 46.5124C39.4171 46.3538 39.0648 46.1204 38.7676 45.8256C38.4704 45.5308 38.2342 45.1803 38.0725 44.7942C37.9108 44.4081 37.8267 43.994 37.825 43.5754V32.1004C37.8233 31.6818 37.9041 31.267 38.0628 30.8796C38.2214 30.4923 38.4548 30.1399 38.7496 29.8428C39.0444 29.5456 39.3948 29.3094 39.7809 29.1477C40.167 28.9859 40.5812 28.9018 40.9998 28.9001H43.5498C43.9683 28.8985 44.3832 28.9793 44.7705 29.1379C45.1579 29.2965 45.5102 29.5299 45.8074 29.8247C46.1046 30.1195 46.3408 30.47 46.5025 30.8561C46.6642 31.2421 46.7483 31.6563 46.75 32.0749ZM35.275 32.7251V42.9251C35.275 43.9396 34.872 44.9125 34.1547 45.6298C33.4374 46.3472 32.4645 46.7501 31.45 46.7501H25.075C24.0606 46.7501 23.0877 46.3472 22.3703 45.6298C21.653 44.9125 21.25 43.9396 21.25 42.9251V32.7251C21.25 31.7107 21.653 30.7378 22.3703 30.0205C23.0877 29.3031 24.0606 28.9001 25.075 28.9001H31.45C32.4645 28.9001 33.4374 29.3031 34.1547 30.0205C34.872 30.7378 35.275 31.7107 35.275 32.7251Z" fill="white"/>
</svg>
