<svg width="68" height="68" viewBox="0 0 68 68" fill="none" xmlns="http://www.w3.org/2000/svg">
<circle cx="34" cy="34" r="34" fill="#E01E26"/>
<g clip-path="url(#clip0_24_120)">
<path d="M21.3941 17.9976C18.4324 17.9976 16 20.7003 16 23.991V39.998C16 43.2886 18.4324 45.9952 21.3941 45.9952H35.2554L40.1993 49.6717C41.0295 50.2798 42.1463 50.0249 42.6936 49.1024C42.7289 49.0428 42.7614 48.9811 42.7909 48.9177L44.1587 45.9952H46.606C49.5677 45.9952 52.0001 43.2886 52.0001 39.998V23.991C52.0001 20.7003 49.5677 17.9976 46.606 17.9976H21.3941ZM21.3941 21.9984H46.606C47.6216 21.9984 48.3993 22.8624 48.3993 23.991V39.998C48.3993 41.1265 47.6217 41.9905 46.606 41.9905H43.058C42.3835 41.9941 41.7674 42.4163 41.4616 43.0845L40.5333 45.0928L36.7954 42.3305C36.5011 42.1109 36.1549 41.9926 35.8003 41.9906H21.3941C20.3784 41.9906 19.6007 41.1266 19.6007 39.9981V23.991C19.6007 22.8624 20.3785 21.9984 21.3941 21.9984ZM39.3624 25.9679C38.8948 25.9833 38.4508 26.2005 38.1247 26.5734L32.1997 33.1607L29.8719 30.5781C29.1982 29.7623 28.0569 29.7077 27.3226 30.4564C26.5884 31.2049 26.5393 32.4731 27.2131 33.2889C27.248 33.3312 27.2846 33.3718 27.3226 33.4106L30.9234 37.4153C31.6248 38.1986 32.7648 38.2018 33.4697 37.4225C33.4719 37.4201 33.474 37.4177 33.4762 37.4153L40.6636 29.4098C41.3786 28.6419 41.3978 27.3753 40.7066 26.5809C40.3554 26.1773 39.8677 25.9561 39.3625 25.9716L39.3624 25.9679Z" fill="white"/>
</g>
<defs>
<clipPath id="clip0_24_120">
<rect width="36" height="40" fill="white" transform="translate(16 14)"/>
</clipPath>
</defs>
</svg>
