<svg width="68" height="68" viewBox="0 0 68 68" fill="none" xmlns="http://www.w3.org/2000/svg">
<circle cx="34" cy="34" r="34" fill="#E01E26"/>
<path d="M48.025 16.15H19.975C18.9606 16.15 17.9877 16.553 17.2703 17.2703C16.553 17.9877 16.15 18.9606 16.15 19.975V48.025C16.15 49.0395 16.553 50.0124 17.2703 50.7297C17.9877 51.447 18.9606 51.85 19.975 51.85H48.025C49.0395 51.85 50.0124 51.447 50.7297 50.7297C51.447 50.0124 51.85 49.0395 51.85 48.025V19.975C51.85 18.9606 51.447 17.9877 50.7297 17.2703C50.0124 16.553 49.0395 16.15 48.025 16.15ZM45.475 19.975C45.7272 19.975 45.9737 20.0498 46.1834 20.1899C46.393 20.33 46.5565 20.5291 46.653 20.7621C46.7495 20.9951 46.7747 21.2514 46.7255 21.4988C46.6763 21.7461 46.5549 21.9733 46.3766 22.1516C46.1983 22.3299 45.9711 22.4513 45.7237 22.5005C45.4764 22.5497 45.2201 22.5245 44.9871 22.428C44.7541 22.3315 44.555 22.168 44.4149 21.9584C44.2748 21.7487 44.2 21.5022 44.2 21.25C44.2 20.9119 44.3343 20.5876 44.5734 20.3485C44.8126 20.1094 45.1369 19.975 45.475 19.975ZM40.375 19.975C40.6272 19.975 40.8737 20.0498 41.0834 20.1899C41.293 20.33 41.4565 20.5291 41.553 20.7621C41.6495 20.9951 41.6747 21.2514 41.6255 21.4988C41.5763 21.7461 41.4549 21.9733 41.2766 22.1516C41.0983 22.3299 40.8711 22.4513 40.6238 22.5005C40.3764 22.5497 40.1201 22.5245 39.8871 22.428C39.6541 22.3315 39.455 22.168 39.3149 21.9584C39.1748 21.7487 39.1 21.5022 39.1 21.25C39.1 20.9119 39.2343 20.5876 39.4734 20.3485C39.7126 20.1094 40.0369 19.975 40.375 19.975ZM35.275 19.975C35.5272 19.975 35.7737 20.0498 35.9834 20.1899C36.193 20.33 36.3565 20.5291 36.453 20.7621C36.5495 20.9951 36.5747 21.2514 36.5255 21.4988C36.4763 21.7461 36.3549 21.9733 36.1766 22.1516C35.9983 22.3299 35.7711 22.4513 35.5238 22.5005C35.2764 22.5497 35.0201 22.5245 34.7871 22.428C34.5541 22.3315 34.355 22.168 34.2149 21.9584C34.0748 21.7487 34 21.5022 34 21.25C34 20.9119 34.1343 20.5876 34.3734 20.3485C34.6126 20.1094 34.9369 19.975 35.275 19.975ZM49.3 48.025C49.3 48.3632 49.1657 48.6875 48.9266 48.9266C48.6875 49.1657 48.3632 49.3 48.025 49.3H19.975C19.6369 49.3 19.3126 49.1657 19.0734 48.9266C18.8343 48.6875 18.7 48.3632 18.7 48.025V26.35H49.3V48.025ZM46.75 32.0748V43.5498C46.7517 43.9684 46.6709 44.3832 46.5123 44.7706C46.3536 45.1579 46.1202 45.5102 45.8254 45.8074C45.5306 46.1046 45.1802 46.3408 44.7941 46.5025C44.408 46.6643 43.9938 46.7484 43.5753 46.75H41.0253C40.6067 46.7517 40.1918 46.6709 39.8045 46.5123C39.4171 46.3536 39.0648 46.1203 38.7676 45.8254C38.4704 45.5306 38.2342 45.1802 38.0725 44.7941C37.9108 44.408 37.8267 43.9939 37.825 43.5753V32.1003C37.8233 31.6817 37.9041 31.2669 38.0628 30.8795C38.2214 30.4921 38.4548 30.1398 38.7496 29.8426C39.0444 29.5455 39.3948 29.3093 39.7809 29.1475C40.167 28.9858 40.5812 28.9017 40.9998 28.9H43.5498C43.9683 28.8983 44.3832 28.9791 44.7705 29.1378C45.1579 29.2964 45.5102 29.5298 45.8074 29.8246C46.1046 30.1194 46.3408 30.4699 46.5025 30.8559C46.6642 31.242 46.7483 31.6562 46.75 32.0748ZM35.275 32.725V42.925C35.275 43.9395 34.872 44.9124 34.1547 45.6297C33.4374 46.347 32.4645 46.75 31.45 46.75H25.075C24.0606 46.75 23.0877 46.347 22.3703 45.6297C21.653 44.9124 21.25 43.9395 21.25 42.925V32.725C21.25 31.7106 21.653 30.7377 22.3703 30.0203C23.0877 29.303 24.0606 28.9 25.075 28.9H31.45C32.4645 28.9 33.4374 29.303 34.1547 30.0203C34.872 30.7377 35.275 31.7106 35.275 32.725Z" fill="white"/>
</svg>
