<svg width="40" height="40" viewBox="0 0 40 40" fill="none" xmlns="http://www.w3.org/2000/svg">
<path d="M35.25 3.75H5.25C4.25544 3.75 3.30161 4.14509 2.59835 4.84835C1.89509 5.55161 1.5 6.50544 1.5 7.5C1.5 8.49456 1.89509 9.44839 2.59835 10.1517C3.30161 10.8549 4.25544 11.25 5.25 11.25H35.25C36.2446 11.25 37.1984 10.8549 37.9016 10.1517C38.6049 9.44839 39 8.49456 39 7.5C39 6.50544 38.6049 5.55161 37.9016 4.84835C37.1984 4.14509 36.2446 3.75 35.25 3.75Z" fill="#FAFAFA"/>
<path d="M35 16.25H5C4.00544 16.25 3.05161 16.6451 2.34835 17.3483C1.64509 18.0516 1.25 19.0054 1.25 20C1.25 20.9946 1.64509 21.9484 2.34835 22.6517C3.05161 23.3549 4.00544 23.75 5 23.75H35C35.9946 23.75 36.9484 23.3549 37.6516 22.6517C38.3549 21.9484 38.75 20.9946 38.75 20C38.75 19.0054 38.3549 18.0516 37.6516 17.3483C36.9484 16.6451 35.9946 16.25 35 16.25Z" fill="#FAFAFA"/>
<path d="M20 28.75H5C4.00544 28.75 3.05161 29.1451 2.34835 29.8483C1.64509 30.5516 1.25 31.5054 1.25 32.5C1.25 33.4946 1.64509 34.4484 2.34835 35.1517C3.05161 35.8549 4.00544 36.25 5 36.25H20C20.9946 36.25 21.9484 35.8549 22.6517 35.1517C23.3549 34.4484 23.75 33.4946 23.75 32.5C23.75 31.5054 23.3549 30.5516 22.6517 29.8483C21.9484 29.1451 20.9946 28.75 20 28.75Z" fill="#FAFAFA"/>
</svg>
