<svg width="80" height="80" viewBox="0 0 80 80" fill="none" xmlns="http://www.w3.org/2000/svg">
<path d="M33.75 50H36.25V52.5H33.75V50Z" fill="#E01E26"/>
<path d="M38.75 50H41.25V52.5H38.75V50Z" fill="#E01E26"/>
<path d="M43.75 50H46.25V52.5H43.75V50Z" fill="#E01E26"/>
<path d="M33.75 55H36.25V57.5H33.75V55Z" fill="#E01E26"/>
<path d="M38.75 55H41.25V57.5H38.75V55Z" fill="#E01E26"/>
<path d="M43.75 55H46.25V57.5H43.75V55Z" fill="#E01E26"/>
<path d="M33.75 60H36.25V62.5H33.75V60Z" fill="#E01E26"/>
<path d="M38.75 60H41.25V62.5H38.75V60Z" fill="#E01E26"/>
<path d="M43.75 60H46.25V62.5H43.75V60Z" fill="#E01E26"/>
<path d="M33.75 40H36.25V42.5H33.75V40Z" fill="#E01E26"/>
<path d="M38.75 40H41.25V42.5H38.75V40Z" fill="#E01E26"/>
<path d="M43.75 40H46.25V42.5H43.75V40Z" fill="#E01E26"/>
<path d="M33.75 45H36.25V47.5H33.75V45Z" fill="#E01E26"/>
<path d="M38.75 45H41.25V47.5H38.75V45Z" fill="#E01E26"/>
<path d="M43.75 45H46.25V47.5H43.75V45Z" fill="#E01E26"/>
<path d="M27.792 12.8812L32.9895 17.9475L31.7625 25.1011C31.723 25.331 31.7487 25.5673 31.8366 25.7834C31.9244 25.9995 32.071 26.1867 32.2597 26.3238C32.4484 26.4609 32.6717 26.5425 32.9044 26.5593C33.1371 26.5761 33.3698 26.5275 33.5762 26.4189L40 23.0414L46.4244 26.4189C46.6308 26.5275 46.8635 26.5761 47.0962 26.5593C47.3288 26.5425 47.5522 26.4609 47.7409 26.3238C47.9296 26.1867 48.0762 25.9995 48.164 25.7834C48.2519 25.5673 48.2776 25.331 48.2381 25.1011L47.0111 17.9475L52.2092 12.8812C52.3762 12.7184 52.4944 12.5121 52.5503 12.2857C52.6062 12.0592 52.5976 11.8216 52.5256 11.5998C52.4535 11.3779 52.3208 11.1807 52.1424 11.0304C51.9641 10.88 51.7472 10.7826 51.5164 10.7491L44.3337 9.70546L41.1215 3.19671C41.0183 2.98754 40.8586 2.81143 40.6605 2.68828C40.4625 2.56514 40.2339 2.49988 40.0006 2.49988C39.7674 2.49988 39.5388 2.56514 39.3407 2.68828C39.1426 2.81143 38.9829 2.98754 38.8797 3.19671L35.6675 9.70546L28.4844 10.7491C28.2535 10.7826 28.0367 10.88 27.8583 11.0304C27.68 11.1807 27.5473 11.3779 27.4752 11.5998C27.4031 11.8216 27.3945 12.0592 27.4504 12.2857C27.5063 12.5121 27.6245 12.7184 27.7915 12.8812H27.792ZM36.6773 12.0844C36.8779 12.0552 37.0683 11.9777 37.2323 11.8586C37.3962 11.7394 37.5287 11.5822 37.6184 11.4005L40 6.57452L42.3822 11.4011C42.4718 11.5828 42.6044 11.74 42.7683 11.8592C42.9323 11.9783 43.1227 12.0558 43.3233 12.085L48.6498 12.8589L44.7969 16.6161C44.6518 16.7576 44.5432 16.9322 44.4806 17.1249C44.418 17.3177 44.4032 17.5228 44.4375 17.7225L45.3473 23.0275L40.5831 20.5228C40.4037 20.4285 40.2041 20.3792 40.0014 20.3792C39.7987 20.3792 39.5991 20.4285 39.4197 20.5228L34.6555 23.0275L35.5653 17.7225C35.5996 17.5228 35.5848 17.3177 35.5222 17.1249C35.4596 16.9322 35.351 16.7576 35.2059 16.6161L31.3508 12.8594L36.6773 12.0844Z" fill="#E01E26"/>
<path d="M51.3113 22.8269C51.2392 23.0487 51.2307 23.2862 51.2865 23.5126C51.3424 23.7391 51.4605 23.9453 51.6275 24.1081L55.0886 27.4819L54.2716 32.2458C54.2321 32.4757 54.2578 32.7121 54.3457 32.9281C54.4335 33.1442 54.5801 33.3314 54.7688 33.4685C54.9575 33.6056 55.1809 33.6872 55.4135 33.704C55.6462 33.7208 55.8789 33.6722 56.0853 33.5636L60.3636 31.3144L64.6419 33.5636C64.8484 33.6721 65.0811 33.7207 65.3137 33.7039C65.5463 33.6871 65.7696 33.6055 65.9583 33.4684C66.147 33.3313 66.2935 33.1441 66.3814 32.9281C66.4693 32.712 66.4949 32.4757 66.4555 32.2458L65.6383 27.4819L69.0996 24.1081C69.2666 23.9453 69.3848 23.739 69.4407 23.5126C69.4966 23.2861 69.488 23.0485 69.4159 22.8267C69.3438 22.6049 69.2111 22.4076 69.0328 22.2573C68.8544 22.1069 68.6376 22.0095 68.4068 21.9759L63.6236 21.2813L61.4844 16.9467C61.3812 16.7376 61.2215 16.5615 61.0234 16.4384C60.8253 16.3153 60.5968 16.2501 60.3635 16.2501C60.1303 16.2501 59.9018 16.3153 59.7037 16.4384C59.5056 16.5615 59.3459 16.7376 59.2427 16.9467L57.1035 21.2813L52.3203 21.9763C52.0895 22.0098 51.8727 22.1072 51.6944 22.2576C51.5161 22.4079 51.3834 22.6051 51.3113 22.8269ZM58.1133 23.6606C58.3139 23.6315 58.5044 23.5541 58.6683 23.4349C58.8323 23.3158 58.9649 23.1586 59.0546 22.9769L60.3636 20.3244L61.6727 22.9769C61.7624 23.1586 61.8949 23.3158 62.0589 23.4349C62.2228 23.554 62.4132 23.6315 62.6138 23.6606L65.5408 24.0859L63.4228 26.1506C63.2777 26.2921 63.1692 26.4667 63.1066 26.6595C63.044 26.8522 63.0292 27.0573 63.0635 27.257L63.5635 30.1724L60.9453 28.7958C60.766 28.7015 60.5664 28.6522 60.3637 28.6522C60.1611 28.6522 59.9614 28.7015 59.7821 28.7958L57.1639 30.1724L57.6639 27.257C57.6982 27.0573 57.6834 26.8522 57.6208 26.6595C57.5582 26.4667 57.4497 26.2921 57.3046 26.1506L55.1863 24.0859L58.1133 23.6606Z" fill="#E01E26"/>
<path d="M65.2847 36.4311C65.0539 36.4646 64.8371 36.5621 64.6588 36.7125C64.4805 36.8628 64.3478 37.06 64.2758 37.2818C64.2037 37.5036 64.1951 37.7412 64.251 37.9676C64.3069 38.194 64.425 38.4003 64.592 38.5631L66.8178 40.7328L66.2923 43.7969C66.2529 44.0267 66.2786 44.2631 66.3664 44.4791C66.4543 44.6952 66.6009 44.8823 66.7895 45.0194C66.9782 45.1565 67.2015 45.2381 67.4341 45.2549C67.6668 45.2718 67.8995 45.2232 68.1059 45.1147L70.8572 43.6683L73.6084 45.1147C73.8149 45.2231 74.0476 45.2717 74.2802 45.2549C74.5128 45.238 74.736 45.1564 74.9247 45.0193C75.1133 44.8822 75.2599 44.6951 75.3477 44.479C75.4356 44.263 75.4613 44.0267 75.4219 43.7969L74.8964 40.7334L77.1225 38.5625C77.2895 38.3997 77.4076 38.1934 77.4635 37.9669C77.5194 37.7405 77.5108 37.503 77.4387 37.2811C77.3666 37.0593 77.2339 36.8621 77.0556 36.7118C76.8773 36.5614 76.6605 36.464 76.4297 36.4304L73.3537 35.9844L71.9787 33.197C71.8755 32.9878 71.7158 32.8117 71.5177 32.6886C71.3196 32.5654 71.0911 32.5002 70.8578 32.5002C70.6246 32.5002 70.396 32.5654 70.1979 32.6886C69.9998 32.8117 69.8401 32.9878 69.7369 33.197L68.3619 35.9844L65.2847 36.4311ZM70.3125 37.6798L70.858 36.5745L71.4036 37.6798C71.4932 37.8614 71.6256 38.0185 71.7893 38.1376C71.9531 38.2567 72.1434 38.3343 72.3437 38.3636L73.5636 38.5409L72.6809 39.4012C72.5358 39.5427 72.4273 39.7174 72.3646 39.9102C72.302 40.1029 72.2873 40.308 72.3216 40.5078L72.53 41.7226L71.4389 41.149C71.2595 41.0547 71.0599 41.0055 70.8573 41.0055C70.6546 41.0055 70.455 41.0547 70.2756 41.149L69.1845 41.7226L69.3928 40.5078C69.4271 40.308 69.4123 40.1029 69.3497 39.9102C69.2871 39.7174 69.1786 39.5427 69.0334 39.4012L68.1509 38.5409L69.3708 38.3636C69.5714 38.3345 69.762 38.2571 69.9261 38.138C70.0901 38.0189 70.2227 37.8616 70.3125 37.6798Z" fill="#E01E26"/>
<path d="M10.9004 24.1083L14.3617 27.482L13.5445 32.2459C13.5051 32.4758 13.5307 32.7121 13.6186 32.9282C13.7065 33.1442 13.853 33.3314 14.0417 33.4685C14.2304 33.6056 14.4537 33.6872 14.6863 33.704C14.919 33.7208 15.1517 33.6722 15.3581 33.5637L19.6364 31.3145L23.9147 33.5637C24.1211 33.6723 24.3538 33.7209 24.5865 33.7041C24.8192 33.6873 25.0425 33.6057 25.2312 33.4686C25.4199 33.3315 25.5665 33.1443 25.6543 32.9282C25.7422 32.7122 25.7679 32.4758 25.7284 32.2459L24.9114 27.482L28.3725 24.1083C28.5395 23.9455 28.6577 23.7392 28.7136 23.5127C28.7695 23.2862 28.7609 23.0487 28.6888 22.8268C28.6168 22.605 28.484 22.4077 28.3057 22.2574C28.1274 22.107 27.9105 22.0096 27.6797 21.9761L22.8965 21.2812L20.7573 16.9469C20.6541 16.7377 20.4944 16.5617 20.2963 16.4385C20.0983 16.3154 19.8697 16.2502 19.6365 16.2502C19.4032 16.2502 19.1747 16.3154 18.9766 16.4385C18.7785 16.5617 18.6188 16.7377 18.5156 16.9469L16.3764 21.2812L11.5937 21.9761C11.3629 22.0096 11.146 22.107 10.9677 22.2574C10.7894 22.4077 10.6566 22.605 10.5846 22.8268C10.5125 23.0487 10.5039 23.2862 10.5598 23.5127C10.6157 23.7392 10.7339 23.9455 10.9009 24.1083H10.9004ZM17.3862 23.6606C17.5868 23.6315 17.7772 23.554 17.9412 23.4349C18.1051 23.3158 18.2376 23.1586 18.3273 22.9769L19.6364 20.3244L20.9454 22.9769C21.0352 23.1586 21.1677 23.3158 21.3317 23.4349C21.4957 23.554 21.6861 23.6315 21.8867 23.6606L24.8137 24.0859L22.6958 26.1506C22.5507 26.2921 22.4421 26.4667 22.3795 26.6595C22.3169 26.8522 22.3021 27.0573 22.3364 27.257L22.8364 30.1723L20.2183 28.7958C20.0389 28.7015 19.8393 28.6523 19.6366 28.6523C19.434 28.6523 19.2344 28.7015 19.055 28.7958L16.4375 30.1719L16.9375 27.2565C16.9718 27.0568 16.9569 26.8517 16.8943 26.659C16.8317 26.4662 16.7232 26.2916 16.5781 26.1501L14.4592 24.0859L17.3862 23.6606Z" fill="#E01E26"/>
<path d="M2.87752 38.5625L5.1033 40.7328L4.57814 43.7969C4.53868 44.0268 4.56434 44.2631 4.65222 44.4792C4.74009 44.6953 4.88667 44.8824 5.07538 45.0196C5.26409 45.1567 5.4874 45.2382 5.72006 45.2551C5.95272 45.2719 6.18543 45.2232 6.39189 45.1147L9.14314 43.6683L11.8944 45.1147C12.1008 45.2231 12.3335 45.2716 12.5661 45.2548C12.7987 45.2379 13.0219 45.1563 13.2105 45.0192C13.3991 44.8821 13.5457 44.695 13.6335 44.479C13.7214 44.263 13.7471 44.0267 13.7077 43.7969L13.1822 40.7328L15.408 38.5625C15.575 38.3997 15.6931 38.1934 15.749 37.967C15.8049 37.7406 15.7963 37.503 15.7242 37.2812C15.6522 37.0594 15.5195 36.8622 15.3412 36.7118C15.1629 36.5615 14.9461 36.464 14.7153 36.4304L11.6392 35.9844L10.2642 33.197C10.161 32.9878 10.0013 32.8117 9.80324 32.6886C9.60514 32.5654 9.37655 32.5002 9.1433 32.5002C8.91005 32.5002 8.68145 32.5654 8.48336 32.6886C8.28527 32.8117 8.12558 32.9878 8.02236 33.197L6.64736 35.9844L3.57033 36.4311C3.33965 36.4647 3.12298 36.5622 2.94478 36.7125C2.76658 36.8628 2.63396 37.0599 2.5619 37.2816C2.48983 37.5033 2.4812 37.7407 2.53697 37.9671C2.59275 38.1934 2.7107 38.3996 2.87752 38.5625ZM7.65627 38.3636C7.85681 38.3344 8.04725 38.257 8.2112 38.1378C8.37514 38.0187 8.50767 37.8615 8.59736 37.6798L9.14299 36.5745L9.68845 37.6798C9.77815 37.8615 9.91067 38.0187 10.0746 38.1378C10.2386 38.257 10.429 38.3344 10.6295 38.3636L11.8494 38.5409L10.9669 39.4012C10.8218 39.5427 10.7132 39.7174 10.6506 39.9102C10.588 40.1029 10.5732 40.308 10.6075 40.5078L10.8158 41.7226L9.7247 41.149C9.54533 41.0547 9.34572 41.0055 9.14306 41.0055C8.94041 41.0055 8.7408 41.0547 8.56142 41.149L7.47033 41.7226L7.67877 40.5078C7.71307 40.308 7.69828 40.1029 7.63567 39.9102C7.57306 39.7174 7.46452 39.5427 7.31939 39.4012L6.43674 38.5409L7.65627 38.3636Z" fill="#E01E26"/>
<path d="M22.5 45H26.25V47.5H22.5V45Z" fill="#E01E26"/>
<path d="M22.5 51.25H26.25V53.75H22.5V51.25Z" fill="#E01E26"/>
<path d="M22.5 57.5H26.25V60H22.5V57.5Z" fill="#E01E26"/>
<path d="M22.5 63.75H26.25V66.25H22.5V63.75Z" fill="#E01E26"/>
<path d="M72.5 61.25H70C68.6744 61.2515 67.4035 61.7788 66.4661 62.7161C65.5288 63.6535 65.0015 64.9244 65 66.25V68.8241C64.0987 68.9679 63.243 69.3186 62.5 69.8488V63.75H60V70H51.25V41.25H60V61.25H62.5V40C62.5 39.6685 62.3683 39.3505 62.1339 39.1161C61.8995 38.8817 61.5815 38.75 61.25 38.75H51.25V32.5C51.25 32.1685 51.1183 31.8505 50.8839 31.6161C50.6495 31.3817 50.3315 31.25 50 31.25H46.25V28.75C46.25 28.4185 46.1183 28.1005 45.8839 27.8661C45.6495 27.6317 45.3315 27.5 45 27.5H35C34.6685 27.5 34.3505 27.6317 34.1161 27.8661C33.8817 28.1005 33.75 28.4185 33.75 28.75V31.25H30C29.6685 31.25 29.3505 31.3817 29.1161 31.6161C28.8817 31.8505 28.75 32.1685 28.75 32.5V38.75H18.75C18.4185 38.75 18.1005 38.8817 17.8661 39.1161C17.6317 39.3505 17.5 39.6685 17.5 40V47.5H20V41.25H28.75V70H20V50H17.5V69.8488C16.757 69.3186 15.9013 68.9679 15 68.8241V66.25C14.9985 64.9244 14.4712 63.6535 13.5339 62.7161C12.5965 61.7788 11.3256 61.2515 10 61.25H7.5C6.17437 61.2515 4.90347 61.7788 3.96611 62.7161C3.02875 63.6535 2.50149 64.9244 2.5 66.25V76.25C2.5 76.5815 2.6317 76.8995 2.86612 77.1339C3.10054 77.3683 3.41848 77.5 3.75 77.5H76.25C76.5815 77.5 76.8995 77.3683 77.1339 77.1339C77.3683 76.8995 77.5 76.5815 77.5 76.25V66.25C77.4985 64.9244 76.9712 63.6535 76.0339 62.7161C75.0965 61.7788 73.8256 61.2515 72.5 61.25ZM36.25 30H43.75V35H36.25V30ZM5 66.25C5.00079 65.5872 5.26443 64.9518 5.7331 64.4831C6.20177 64.0144 6.8372 63.7508 7.5 63.75H10C10.6628 63.7508 11.2982 64.0144 11.7669 64.4831C12.2356 64.9518 12.4992 65.5872 12.5 66.25V68.8241C11.1062 69.0489 9.83792 69.7622 8.92188 70.8364C8.00584 71.9106 7.50183 73.2757 7.5 74.6875V75H5V66.25ZM10 75V74.6875C10.001 73.7761 10.3635 72.9024 11.008 72.258C11.6524 71.6135 12.5261 71.251 13.4375 71.25H14.0625C14.9739 71.251 15.8476 71.6135 16.492 72.258C17.1365 72.9024 17.499 73.7761 17.5 74.6875V75H10ZM20 72.5H28.75V75H20V72.5ZM31.25 33.75H33.75V36.25C33.75 36.5815 33.8817 36.8995 34.1161 37.1339C34.3505 37.3683 34.6685 37.5 35 37.5H45C45.3315 37.5 45.6495 37.3683 45.8839 37.1339C46.1183 36.8995 46.25 36.5815 46.25 36.25V33.75H48.75V75H45V66.25C45 65.9185 44.8683 65.6005 44.6339 65.3661C44.3995 65.1317 44.0815 65 43.75 65H36.25C35.9185 65 35.6005 65.1317 35.3661 65.3661C35.1317 65.6005 35 65.9185 35 66.25V75H31.25V33.75ZM37.5 75V67.5H42.5V75H37.5ZM51.25 72.5H60V75H51.25V72.5ZM62.5 75V74.6875C62.501 73.7761 62.8635 72.9024 63.508 72.258C64.1524 71.6135 65.0261 71.251 65.9375 71.25H66.5625C67.4739 71.251 68.3476 71.6135 68.992 72.258C69.6365 72.9024 69.999 73.7761 70 74.6875V75H62.5ZM75 75H72.5V74.6875C72.4982 73.2757 71.9942 71.9106 71.0781 70.8364C70.1621 69.7622 68.8938 69.0489 67.5 68.8241V66.25C67.5008 65.5872 67.7644 64.9518 68.2331 64.4831C68.7018 64.0144 69.3372 63.7508 70 63.75H72.5C73.1628 63.7508 73.7982 64.0144 74.2669 64.4831C74.7356 64.9518 74.9992 65.5872 75 66.25V75Z" fill="#E01E26"/>
<path d="M53.75 57.5H57.5V60H53.75V57.5Z" fill="#E01E26"/>
<path d="M53.75 63.75H57.5V66.25H53.75V63.75Z" fill="#E01E26"/>
<path d="M53.75 45H57.5V47.5H53.75V45Z" fill="#E01E26"/>
<path d="M53.75 51.25H57.5V53.75H53.75V51.25Z" fill="#E01E26"/>
</svg>
