<svg width="80" height="80" viewBox="0 0 80 80" fill="none" xmlns="http://www.w3.org/2000/svg">
<path d="M47.5 43.75C50.7139 43.75 53.8557 42.797 56.528 41.0114C59.2003 39.2258 61.2831 36.6879 62.513 33.7186C63.743 30.7493 64.0648 27.482 63.4378 24.3298C62.8108 21.1776 61.2631 18.2821 58.9905 16.0095C56.7179 13.7369 53.8224 12.1893 50.6702 11.5622C47.518 10.9352 44.2507 11.257 41.2814 12.487C38.3121 13.7169 35.7742 15.7997 33.9886 18.472C32.203 21.1443 31.25 24.2861 31.25 27.5C31.25 31.8098 32.962 35.943 36.0095 38.9905C39.057 42.038 43.1902 43.75 47.5 43.75ZM47.5 13.75C50.2195 13.75 52.8779 14.5564 55.1391 16.0673C57.4003 17.5782 59.1626 19.7256 60.2033 22.2381C61.244 24.7506 61.5163 27.5153 60.9858 30.1825C60.4553 32.8497 59.1457 35.2998 57.2227 37.2227C55.2997 39.1457 52.8497 40.4553 50.1825 40.9858C47.5153 41.5164 44.7506 41.2441 42.2381 40.2034C39.7256 39.1626 37.5782 37.4003 36.0673 35.1391C34.5564 32.8779 33.75 30.2195 33.75 27.5C33.75 23.8533 35.1987 20.3559 37.7773 17.7773C40.3559 15.1987 43.8533 13.75 47.5 13.75Z" fill="#E01E26"/>
<path d="M54.5666 18.6565L38.6567 34.5664L40.4244 36.3342L56.3343 20.4243L54.5666 18.6565Z" fill="#E01E26"/>
<path d="M42.5 26.25C43.2417 26.25 43.9667 26.0301 44.5834 25.618C45.2001 25.206 45.6807 24.6203 45.9645 23.9351C46.2484 23.2498 46.3226 22.4958 46.1779 21.7684C46.0333 21.041 45.6761 20.3728 45.1516 19.8484C44.6272 19.3239 43.959 18.9668 43.2316 18.8221C42.5042 18.6774 41.7502 18.7516 41.0649 19.0355C40.3797 19.3193 39.794 19.7999 39.382 20.4166C38.9699 21.0333 38.75 21.7583 38.75 22.5C38.75 23.4946 39.1451 24.4484 39.8483 25.1517C40.5516 25.8549 41.5054 26.25 42.5 26.25ZM42.5 21.25C42.7472 21.25 42.9889 21.3233 43.1945 21.4607C43.4 21.598 43.5602 21.7932 43.6548 22.0216C43.7495 22.2501 43.7742 22.5014 43.726 22.7439C43.6778 22.9863 43.5587 23.2091 43.3839 23.3839C43.2091 23.5587 42.9863 23.6778 42.7439 23.726C42.5014 23.7742 42.2501 23.7495 42.0216 23.6549C41.7932 23.5602 41.598 23.4 41.4607 23.1945C41.3233 22.9889 41.25 22.7472 41.25 22.5C41.25 22.1685 41.3817 21.8505 41.6161 21.6161C41.8505 21.3817 42.1685 21.25 42.5 21.25Z" fill="#E01E26"/>
<path d="M52.5 28.75C51.7583 28.75 51.0333 28.9699 50.4166 29.382C49.7999 29.794 49.3193 30.3797 49.0355 31.0649C48.7516 31.7502 48.6774 32.5042 48.8221 33.2316C48.9668 33.959 49.3239 34.6272 49.8484 35.1517C50.3728 35.6761 51.041 36.0333 51.7684 36.1779C52.4958 36.3226 53.2498 36.2484 53.9351 35.9645C54.6203 35.6807 55.206 35.2001 55.618 34.5834C56.0301 33.9667 56.25 33.2417 56.25 32.5C56.25 31.5054 55.8549 30.5516 55.1516 29.8483C54.4484 29.1451 53.4946 28.75 52.5 28.75ZM52.5 33.75C52.2528 33.75 52.0111 33.6767 51.8055 33.5393C51.6 33.402 51.4398 33.2068 51.3452 32.9784C51.2505 32.7499 51.2258 32.4986 51.274 32.2561C51.3223 32.0137 51.4413 31.7909 51.6161 31.6161C51.7909 31.4413 52.0137 31.3222 52.2561 31.274C52.4986 31.2258 52.7499 31.2505 52.9784 31.3452C53.2068 31.4398 53.402 31.6 53.5393 31.8055C53.6767 32.0111 53.75 32.2528 53.75 32.5C53.75 32.8315 53.6183 33.1495 53.3839 33.3839C53.1495 33.6183 52.8315 33.75 52.5 33.75Z" fill="#E01E26"/>
<path d="M24.1875 35C24.0551 35.1679 23.9679 35.3671 23.9344 35.5783C23.9009 35.7895 23.9222 36.0058 23.9962 36.2065C24.0702 36.4072 24.1945 36.5855 24.3571 36.7244C24.5197 36.8634 24.7152 36.9582 24.925 37L28.275 37.7C28.4459 37.7349 28.6076 37.8053 28.7497 37.9064C28.8918 38.0076 29.0111 38.1374 29.1 38.2875C29.183 38.438 29.234 38.6039 29.25 38.775H12.5V41.275H28.5625L28.1125 42.6375C28.0366 42.848 28.0185 43.0751 28.0603 43.295C28.1021 43.5149 28.2021 43.7195 28.35 43.8875C28.4879 44.0492 28.6646 44.173 28.8637 44.2474C29.0627 44.3218 29.2774 44.3442 29.4875 44.3125L32.8375 43.8125C33.0122 43.7807 33.1918 43.789 33.3628 43.8366C33.5339 43.8843 33.6919 43.97 33.825 44.0875C33.9613 44.2009 34.072 44.3421 34.1496 44.5016C34.2271 44.661 34.2699 44.8352 34.275 45.0125L34.375 48.4875C34.3806 48.7014 34.441 48.9102 34.5505 49.0941C34.6599 49.2779 34.8147 49.4306 35 49.5375C35.19 49.6472 35.4056 49.705 35.625 49.705C35.8444 49.705 36.06 49.6472 36.25 49.5375L39.225 47.9125C39.3808 47.8281 39.5527 47.7777 39.7294 47.7648C39.9062 47.7518 40.0836 47.7766 40.25 47.8375C40.4201 47.8941 40.575 47.9888 40.7028 48.1145C40.8306 48.2402 40.928 48.3934 40.9875 48.5625L42.2375 51.7625C42.3159 51.9624 42.4446 52.1387 42.611 52.2745C42.7774 52.4102 42.9759 52.5008 43.1875 52.5375C43.2577 52.5504 43.3298 52.5504 43.4 52.5375C43.5775 52.5373 43.7529 52.4993 43.9145 52.426C44.0762 52.3527 44.2204 52.2458 44.3375 52.1125L46.5875 49.6125C46.7048 49.4795 46.8491 49.373 47.0107 49.3C47.1723 49.227 47.3477 49.1893 47.525 49.1893C47.7023 49.1893 47.8777 49.227 48.0393 49.3C48.2009 49.373 48.3452 49.4795 48.4625 49.6125L50.7 52.1125C50.8416 52.2759 51.0231 52.3998 51.2268 52.4721C51.4306 52.5444 51.6496 52.5626 51.8625 52.525C52.0755 52.4871 52.2749 52.3947 52.4414 52.2566C52.608 52.1186 52.7358 51.9397 52.8125 51.7375L54.0625 48.5375C54.1266 48.371 54.2255 48.2202 54.3528 48.0951C54.48 47.9701 54.6325 47.8737 54.8 47.8125C54.9664 47.7516 55.1438 47.7268 55.3206 47.7398C55.4973 47.7527 55.6692 47.8031 55.825 47.8875L58.75 49.475C58.94 49.5847 59.1556 49.6425 59.375 49.6425C59.5944 49.6425 59.81 49.5847 60 49.475C60.1853 49.3681 60.3401 49.2154 60.4495 49.0316C60.559 48.8477 60.6194 48.6389 60.625 48.425L60.725 45C60.7285 44.8237 60.7694 44.6501 60.8448 44.4907C60.9202 44.3312 61.0285 44.1896 61.1625 44.075C61.2983 43.962 61.4565 43.879 61.6268 43.8316C61.797 43.7842 61.9753 43.7734 62.15 43.8L65.5 44.3C65.711 44.3319 65.9267 44.3093 66.1264 44.2343C66.3262 44.1593 66.5035 44.0344 66.6413 43.8715C66.7792 43.7086 66.873 43.5131 66.9139 43.3037C66.9548 43.0942 66.9414 42.8778 66.875 42.675L65.7875 39.35C65.7341 39.1828 65.7165 39.0062 65.7359 38.8318C65.7553 38.6573 65.8112 38.4889 65.9 38.3375C65.9876 38.1851 66.1063 38.0529 66.2485 37.9495C66.3907 37.8461 66.553 37.7739 66.725 37.7375L70.075 37.0375C70.2837 36.994 70.4778 36.8979 70.6389 36.7583C70.8 36.6187 70.9227 36.4402 70.9954 36.2397C71.0681 36.0393 71.0882 35.8236 71.054 35.6132C71.0198 35.4028 70.9324 35.2046 70.8 35.0375L68.65 32.2875C68.5435 32.1487 68.4673 31.9891 68.4264 31.819C68.3855 31.6488 68.3808 31.472 68.4125 31.3C68.4429 31.129 68.5087 30.9662 68.6055 30.822C68.7024 30.6778 68.8282 30.5553 68.975 30.4625L71.9125 28.625C72.0934 28.5129 72.2427 28.3565 72.3462 28.1705C72.4497 27.9846 72.504 27.7753 72.504 27.5625C72.504 27.3497 72.4497 27.1404 72.3462 26.9545C72.2427 26.7685 72.0934 26.6121 71.9125 26.5L68.975 24.6625C68.8282 24.5696 68.7024 24.4472 68.6055 24.303C68.5087 24.1588 68.4429 23.996 68.4125 23.825C68.3808 23.6529 68.3855 23.4761 68.4264 23.306C68.4673 23.1359 68.5435 22.9763 68.65 22.8375L70.8 20C70.9395 19.8271 71.0304 19.6201 71.0634 19.4004C71.0963 19.1807 71.0701 18.9562 70.9875 18.75C70.9159 18.5501 70.7945 18.3718 70.6348 18.2318C70.4752 18.0919 70.2825 17.9949 70.075 17.95L66.725 17.25C66.5541 17.215 66.3924 17.1447 66.2503 17.0435C66.1082 16.9424 65.9889 16.8126 65.9 16.6625C65.8094 16.5095 65.7525 16.3389 65.7331 16.1621C65.7137 15.9854 65.7323 15.8065 65.7875 15.6375L66.875 12.3125C66.9526 12.103 66.9727 11.8766 66.9331 11.6568C66.8935 11.437 66.7958 11.2317 66.65 11.0625C66.511 10.8988 66.3321 10.7738 66.1307 10.6993C65.9293 10.6249 65.7121 10.6036 65.5 10.6375L62.15 11.25C61.9753 11.2766 61.797 11.2658 61.6268 11.2184C61.4565 11.171 61.2983 11.088 61.1625 10.975C61.0285 10.8604 60.9202 10.7187 60.8448 10.5593C60.7694 10.3999 60.7285 10.2263 60.725 10.05L60.625 6.58749C60.6194 6.37362 60.559 6.16476 60.4495 5.98092C60.3401 5.79707 60.1853 5.64439 60 5.53749C59.81 5.42778 59.5944 5.37003 59.375 5.37003C59.1556 5.37003 58.94 5.42778 58.75 5.53749L55.775 7.16249C55.6192 7.24693 55.4473 7.29728 55.2706 7.31021C55.0938 7.32314 54.9164 7.29835 54.75 7.23749C54.5825 7.17627 54.43 7.07989 54.3028 6.95484C54.1755 6.82979 54.0766 6.67896 54.0125 6.51249L52.7625 3.31249C52.6915 3.10875 52.5691 2.92684 52.407 2.78446C52.2449 2.64209 52.0487 2.54408 51.8375 2.49999C51.6257 2.46086 51.4074 2.47712 51.2037 2.5472C51 2.61728 50.8179 2.73881 50.675 2.89999L48.4375 5.48749C48.3202 5.6205 48.1759 5.72703 48.0143 5.79999C47.8527 5.87296 47.6773 5.9107 47.5 5.9107C47.3227 5.9107 47.1473 5.87296 46.9857 5.79999C46.8241 5.72703 46.6798 5.6205 46.5625 5.48749L44.3125 2.98749C44.1804 2.81252 44.0046 2.67537 43.8028 2.58981C43.6009 2.50424 43.3801 2.47327 43.1625 2.49999C42.9496 2.53785 42.7501 2.63032 42.5835 2.76835C42.417 2.90638 42.2892 3.08526 42.2125 3.28749L40.9625 6.48749C40.903 6.65659 40.8056 6.80983 40.6778 6.9355C40.55 7.06116 40.3951 7.15591 40.225 7.21249C40.0586 7.27335 39.8811 7.29814 39.7044 7.28521C39.5277 7.27228 39.3558 7.22193 39.2 7.13749L36.25 5.52499C36.06 5.41528 35.8444 5.35753 35.625 5.35753C35.4056 5.35753 35.19 5.41528 35 5.52499C34.8147 5.63189 34.6599 5.78457 34.5505 5.96842C34.441 6.15226 34.3806 6.36112 34.375 6.57499L34.275 10.05C34.2699 10.2273 34.2271 10.4014 34.1496 10.5609C34.072 10.7204 33.9613 10.8616 33.825 10.975C33.6892 11.088 33.531 11.171 33.3607 11.2184C33.1905 11.2658 33.0122 11.2766 32.8375 11.25L29.4875 10.75C29.2774 10.7183 29.0627 10.7407 28.8637 10.8151C28.6646 10.8895 28.4879 11.0133 28.35 11.175C28.2021 11.343 28.1021 11.5476 28.0603 11.7675C28.0185 11.9874 28.0366 12.2145 28.1125 12.425L28.5625 13.75H12.5V16.25H29.25C29.2365 16.4176 29.1853 16.58 29.1 16.725C29.0124 16.8774 28.8937 17.0096 28.7515 17.113C28.6093 17.2164 28.447 17.2886 28.275 17.325L24.925 18.025C24.7152 18.0667 24.5197 18.1616 24.3571 18.3005C24.1945 18.4395 24.0702 18.6178 23.9962 18.8185C23.9222 19.0191 23.9009 19.2355 23.9344 19.4467C23.9679 19.6579 24.0551 19.8571 24.1875 20.025L25.15 21.275H7.5V23.775H26.5875C26.5571 23.946 26.4913 24.1088 26.3945 24.253C26.2976 24.3972 26.1718 24.5196 26.025 24.6125L23.3875 26.25H15V28.75H23.3875L26.0125 30.4C26.1616 30.4916 26.2899 30.6134 26.3889 30.7577C26.488 30.902 26.5556 31.0654 26.5875 31.2375H7.5V33.7375H25.15L24.1875 35ZM26.1 27.5L27.35 26.725C27.7932 26.446 28.173 26.0772 28.4649 25.6425C28.7569 25.2078 28.9546 24.7167 29.0453 24.2009C29.136 23.6851 29.1176 23.1561 28.9914 22.6479C28.8652 22.1396 28.6339 21.6634 28.3125 21.25L27.4 20.075L28.775 19.7875C29.2857 19.679 29.7681 19.4651 30.1914 19.1595C30.6146 18.8538 30.9694 18.4632 31.233 18.0125C31.4965 17.5618 31.6631 17.0611 31.722 16.5424C31.7809 16.0236 31.7308 15.4983 31.575 15L31.125 13.6L32.5 13.75C33.0249 13.828 33.5605 13.7936 34.0712 13.6493C34.5818 13.5049 35.0561 13.2538 35.4625 12.9125C35.8662 12.5673 36.192 12.1403 36.4182 11.6598C36.6445 11.1792 36.7661 10.6561 36.775 10.125V8.69999L37.95 9.33749C38.4178 9.59455 38.9351 9.74878 39.4673 9.78985C39.9995 9.83093 40.5344 9.75791 41.0361 9.57568C41.5378 9.39345 41.9949 9.10621 42.3766 8.73316C42.7584 8.36012 43.0562 7.90986 43.25 7.41249L43.75 6.16249L44.6375 7.17499C44.9895 7.5782 45.4237 7.90139 45.911 8.12283C46.3982 8.34427 46.9273 8.45885 47.4625 8.45885C47.9977 8.45885 48.5268 8.34427 49.014 8.12283C49.5013 7.90139 49.9355 7.5782 50.2875 7.17499L51.25 6.12499L51.7625 7.37499C51.9537 7.86713 52.2467 8.31333 52.6223 8.6844C52.9979 9.05547 53.4477 9.34305 53.9421 9.52831C54.4365 9.71357 54.9645 9.79233 55.4914 9.75945C56.0184 9.72657 56.5324 9.58278 57 9.33749L58.1875 8.74999V10.175C58.2012 10.7059 58.3276 11.2278 58.5582 11.7062C58.7887 12.1846 59.1183 12.6085 59.525 12.95C59.936 13.2864 60.4137 13.5317 60.9266 13.6696C61.4394 13.8075 61.9757 13.8349 62.5 13.75L63.85 13.55L63.4125 15C63.2596 15.4943 63.2107 16.0149 63.2687 16.529C63.3268 17.0432 63.4907 17.5398 63.75 17.9875C64.0168 18.4451 64.3776 18.841 64.8085 19.1491C65.2394 19.4572 65.7307 19.6705 66.25 19.775L67.6375 20.0625L66.725 21.2375C66.4015 21.6512 66.1684 22.1283 66.041 22.6379C65.9136 23.1474 65.8947 23.678 65.9854 24.1954C66.0762 24.7127 66.2746 25.2052 66.5678 25.641C66.861 26.0767 67.2425 26.4461 67.6875 26.725L68.9375 27.5L67.6875 28.275C67.2414 28.5509 66.8582 28.9174 66.5626 29.3506C66.267 29.7839 66.0655 30.2744 65.9713 30.7904C65.8771 31.3063 65.8921 31.8363 66.0155 32.3461C66.1388 32.8559 66.3678 33.3342 66.6875 33.75L67.6 34.925L66.25 35.225C65.7336 35.3325 65.2456 35.5477 64.818 35.8566C64.3904 36.1656 64.0328 36.5612 63.7685 37.0178C63.5043 37.4743 63.3393 37.9815 63.2844 38.5061C63.2295 39.0308 63.286 39.5611 63.45 40.0625L63.9125 41.4625L62.5 41.25C61.9749 41.172 61.4392 41.2063 60.9283 41.3508C60.4174 41.4952 59.9431 41.7465 59.5366 42.088C59.1301 42.4295 58.8008 42.8534 58.5703 43.3317C58.3399 43.81 58.2137 44.3318 58.2 44.8625V46.2875L57.025 45.65C56.5577 45.3951 56.0415 45.2426 55.5107 45.2027C54.9799 45.1628 54.4467 45.2363 53.9465 45.4184C53.4464 45.6005 52.9907 45.887 52.6098 46.2588C52.2289 46.6307 51.9316 47.0793 51.7375 47.575L51.225 48.825L50.35 47.8125C49.998 47.4093 49.5638 47.0861 49.0765 46.8647C48.5893 46.6432 48.0602 46.5286 47.525 46.5286C46.9898 46.5286 46.4607 46.6432 45.9735 46.8647C45.4862 47.0861 45.052 47.4093 44.7 47.8125L43.75 48.875L43.25 47.625C43.0563 47.1279 42.7587 46.6779 42.3772 46.3049C41.9956 45.932 41.5389 45.6448 41.0375 45.4625C40.6363 45.3184 40.2138 45.2423 39.7875 45.2375C39.1578 45.2349 38.538 45.3942 37.9875 45.7L36.8125 46.3375V44.9125C36.8061 44.3763 36.6847 43.8477 36.4566 43.3624C36.2285 42.8771 35.899 42.4464 35.4902 42.0992C35.0815 41.7521 34.6031 41.4967 34.0873 41.3502C33.5714 41.2037 33.0302 41.1695 32.5 41.25L31.15 41.45L31.6 40.05C31.7616 39.5459 31.8147 39.0134 31.7557 38.4873C31.6968 37.9613 31.5271 37.4536 31.2579 36.9979C30.9887 36.5421 30.626 36.1485 30.1938 35.8429C29.7615 35.5373 29.2695 35.3268 28.75 35.225L27.4 35L28.3125 33.825C28.636 33.4112 28.8691 32.9342 28.9965 32.4246C29.1239 31.9151 29.1428 31.3844 29.0521 30.8671C28.9613 30.3498 28.7629 29.8573 28.4697 29.4215C28.1765 28.9857 27.795 28.6164 27.35 28.3375L26.1 27.5Z" fill="#E01E26"/>
<path d="M8.75 77.5H23.75C24.0815 77.5 24.3995 77.3683 24.6339 77.1339C24.8683 76.8995 25 76.5815 25 76.25V73.75L46.35 77.3C47.6508 77.5485 48.9907 77.5023 50.2713 77.1649C51.5519 76.8274 52.7406 76.2073 53.75 75.35L71 60.45C71.7014 59.8493 72.1985 59.0453 72.4225 58.1494C72.6465 57.2535 72.5862 56.3101 72.25 55.45C71.9676 54.7505 71.5227 54.1282 70.952 53.6348C70.3814 53.1414 69.7014 52.791 68.9684 52.6127C68.2354 52.4343 67.4704 52.4331 66.7369 52.6091C66.0033 52.7852 65.3222 53.1334 64.75 53.625L55.85 60.4375C55.4503 59.5548 54.8028 58.8072 53.9862 58.2857C53.1695 57.7642 52.2189 57.4913 51.25 57.5H36.25C36.25 55.8424 35.5915 54.2527 34.4194 53.0806C33.2473 51.9085 31.6576 51.25 30 51.25H25V48.75C25 48.4185 24.8683 48.1005 24.6339 47.8661C24.3995 47.6317 24.0815 47.5 23.75 47.5H8.75C8.41848 47.5 8.10054 47.6317 7.86612 47.8661C7.6317 48.1005 7.5 48.4185 7.5 48.75V76.25C7.5 76.5815 7.6317 76.8995 7.86612 77.1339C8.10054 77.3683 8.41848 77.5 8.75 77.5ZM25 53.75H30C30.9946 53.75 31.9484 54.1451 32.6517 54.8484C33.3549 55.5516 33.75 56.5054 33.75 57.5V58.75C33.75 59.0815 33.8817 59.3995 34.1161 59.6339C34.3505 59.8683 34.6685 60 35 60H51.25C51.913 60 52.5489 60.2634 53.0178 60.7322C53.4866 61.2011 53.75 61.837 53.75 62.5C53.75 63.163 53.4866 63.7989 53.0178 64.2678C52.5489 64.7366 51.913 65 51.25 65H33.75V67.5H51.25C52.4298 67.4955 53.57 67.074 54.469 66.31C55.368 65.5459 55.9678 64.4886 56.1625 63.325L66.25 55.5625C66.6653 55.1993 67.1983 54.9994 67.75 55C68.1937 54.9883 68.6301 55.1142 68.9994 55.3603C69.3686 55.6065 69.6527 55.961 69.8125 56.375C69.9674 56.7483 70.0025 57.1605 69.913 57.5547C69.8234 57.9488 69.6136 58.3053 69.3125 58.575L52.1375 73.45C51.4085 74.0761 50.5481 74.5304 49.6199 74.7792C48.6917 75.028 47.7194 75.065 46.775 74.8875L25 71.25V53.75ZM10 50H22.5V75H10V50Z" fill="#E01E26"/>
<path d="M10 13.75H7.5V16.25H10V13.75Z" fill="#E01E26"/>
<path d="M10 38.75H7.5V41.25H10V38.75Z" fill="#E01E26"/>
<path d="M12.5 26.25H10V28.75H12.5V26.25Z" fill="#E01E26"/>
</svg>
