<svg width="36" height="36" viewBox="0 0 36 36" fill="none" xmlns="http://www.w3.org/2000/svg">
<path d="M29.243 23.5899C28.2164 22.5352 25.2984 20.5594 23.3859 20.5594C22.943 20.5594 22.5562 20.6579 22.2398 20.8618C21.3047 21.4594 20.5594 21.9235 20.2008 21.9235C20.0039 21.9235 19.793 21.7477 19.3289 21.3469L19.2516 21.2766C17.9648 20.1586 17.6906 19.8704 17.1914 19.35L17.0648 19.2165C16.9734 19.125 16.8961 19.0407 16.8187 18.9633C16.3828 18.5133 16.0664 18.1899 14.9484 16.9243L14.8992 16.868C14.3648 16.2633 14.0133 15.8696 13.9922 15.5813C13.9711 15.3 14.2172 14.843 14.843 13.9922C15.6023 12.9657 15.6305 11.7 14.9344 10.2305C14.3789 9.07036 13.4719 7.95942 12.6703 6.98208L12.6 6.89771C11.9109 6.05396 11.1094 5.63208 10.2164 5.63208C9.22499 5.63208 8.40233 6.16645 7.96639 6.4477C7.93124 6.4688 7.89608 6.49692 7.86093 6.51802C6.88358 7.13677 6.17343 7.98755 5.90624 8.85239C5.50546 10.1532 5.23827 11.8407 7.1578 15.3493C8.81718 18.3868 10.3219 20.4258 12.7125 22.8797C14.9625 25.186 15.9609 25.9313 18.1969 27.5485C20.6859 29.3485 23.0766 30.3821 24.75 30.3821C26.3039 30.3821 27.5273 30.3821 29.2711 28.2797C31.0992 26.0719 30.3398 24.7219 29.243 23.5899Z" fill="white"/>
</svg>
